<?xml version="1.0" encoding="utf-8"?>
<!-- Generated by Mocodo 4.3.2 -->
<svg width="762" height="707" viewBox="0 0 762 707" xmlns="http://www.w3.org/2000/svg">
<rect x="0" y="0" width="762" height="707" fill="#f7f7f7" stroke="none" stroke-width="0"/>

<!-- Association APPARTIENT -->
<g>
	<line x1="201" y1="175" x2="201" y2="53" stroke="#9970ab" stroke-width="1"/>
	<line x1="63" y1="53" x2="201" y2="53" stroke="#9970ab" stroke-width="1"/>
	<g>
		<path d="M229 27 a14 14 90 0 1 14 14 V53 h-84 V41 a14 14 90 0 1 14 -14" fill="#c2a5cf" stroke="#c2a5cf" stroke-width="0"/>
		<path d="M243 53 v12 a14 14 90 0 1 -14 14 H173 a14 14 90 0 1 -14 -14 V53 H84" fill="#e7d4e8" stroke="#e7d4e8" stroke-width="0"/>
		<rect x="159" y="27" width="84" height="52" fill="none" rx="14" stroke="#9970ab" stroke-width="1.5"/>
		<line x1="159" y1="53" x2="243" y2="53" stroke="#9970ab" stroke-width="1"/>
		<text x="166" y="45.6" fill="#000000" font-family="Trebuchet MS" font-size="14">Appartient</text>
	</g>
	<text x="206" y="96" fill="#1b7837" font-family="Verdana" font-size="12">0,N</text>
	<text x="120" y="70" fill="#1b7837" font-family="Verdana" font-size="12">1,2</text>
</g>

<!-- Association AUTHENTIFIER -->
<g>
	<line x1="63" y1="306" x2="63" y2="175" stroke="#9970ab" stroke-width="1"/>
	<line x1="201" y1="175" x2="63" y2="175" stroke="#9970ab" stroke-width="1"/>
	<g>
		<path d="M103 149 a14 14 90 0 1 14 14 V175 h-108 V163 a14 14 90 0 1 14 -14" fill="#c2a5cf" stroke="#c2a5cf" stroke-width="0"/>
		<path d="M117 175 v12 a14 14 90 0 1 -14 14 H23 a14 14 90 0 1 -14 -14 V175 H108" fill="#e7d4e8" stroke="#e7d4e8" stroke-width="0"/>
		<rect x="9" y="149" width="108" height="52" fill="none" rx="14" stroke="#9970ab" stroke-width="1.5"/>
		<line x1="9" y1="175" x2="117" y2="175" stroke="#9970ab" stroke-width="1"/>
		<text x="17" y="167.6" fill="#000000" font-family="Trebuchet MS" font-size="14">AUTHENTIFIER</text>
	</g>
	<text x="68" y="245" fill="#1b7837" font-family="Verdana" font-size="12">1,1</text>
	<text x="123" y="192" fill="#1b7837" font-family="Verdana" font-size="12">1,1</text>
</g>

<!-- Association PRATIQUER -->
<g>
	<line x1="201" y1="175" x2="353" y2="175" stroke="#9970ab" stroke-width="1"/>
	<line x1="353" y1="53" x2="353" y2="175" stroke="#9970ab" stroke-width="1"/>
	<g>
		<path d="M383 149 a14 14 90 0 1 14 14 V175 h-88 V163 a14 14 90 0 1 14 -14" fill="#c2a5cf" stroke="#c2a5cf" stroke-width="0"/>
		<path d="M397 175 v12 a14 14 90 0 1 -14 14 H323 a14 14 90 0 1 -14 -14 V175 H88" fill="#e7d4e8" stroke="#e7d4e8" stroke-width="0"/>
		<rect x="309" y="149" width="88" height="52" fill="none" rx="14" stroke="#9970ab" stroke-width="1.5"/>
		<line x1="309" y1="175" x2="397" y2="175" stroke="#9970ab" stroke-width="1"/>
		<text x="317" y="167.6" fill="#000000" font-family="Trebuchet MS" font-size="14">PRATIQUER</text>
	</g>
	<text x="258" y="192" fill="#1b7837" font-family="Verdana" font-size="12">0,N</text>
	<text x="358" y="114" fill="#1b7837" font-family="Verdana" font-size="12">0,N</text>
</g>

<!-- Association COMMANDER -->
<g>
	<line x1="201" y1="175" x2="201" y2="306" stroke="#9970ab" stroke-width="1"/>
	<line x1="353" y1="306" x2="201" y2="306" stroke="#9970ab" stroke-width="1"/>
	<g>
		<path d="M235 280 a14 14 90 0 1 14 14 V306 h-96 V294 a14 14 90 0 1 14 -14" fill="#c2a5cf" stroke="#c2a5cf" stroke-width="0"/>
		<path d="M249 306 v12 a14 14 90 0 1 -14 14 H167 a14 14 90 0 1 -14 -14 V306 H96" fill="#e7d4e8" stroke="#e7d4e8" stroke-width="0"/>
		<rect x="153" y="280" width="96" height="52" fill="none" rx="14" stroke="#9970ab" stroke-width="1.5"/>
		<line x1="153" y1="306" x2="249" y2="306" stroke="#9970ab" stroke-width="1"/>
		<text x="160" y="298.6" fill="#000000" font-family="Trebuchet MS" font-size="14">COMMANDER</text>
	</g>
	<text x="206" y="263" fill="#1b7837" font-family="Verdana" font-size="12">0,N</text>
	<text x="255" y="323" fill="#1b7837" font-family="Verdana" font-size="12">1,1</text>
</g>

<!-- Association EST -->
<g>
	<line x1="500" y1="175" x2="500" y2="306" stroke="#9970ab" stroke-width="1"/>
	<line x1="353" y1="306" x2="500" y2="306" stroke="#9970ab" stroke-width="1"/>
	<g>
		<path d="M505 280 a14 14 90 0 1 14 14 V306 h-38 V294 a14 14 90 0 1 14 -14" fill="#c2a5cf" stroke="#c2a5cf" stroke-width="0"/>
		<path d="M519 306 v12 a14 14 90 0 1 -14 14 H495 a14 14 90 0 1 -14 -14 V306 H38" fill="#e7d4e8" stroke="#e7d4e8" stroke-width="0"/>
		<rect x="481" y="280" width="38" height="52" fill="none" rx="14" stroke="#9970ab" stroke-width="1.5"/>
		<line x1="481" y1="306" x2="519" y2="306" stroke="#9970ab" stroke-width="1"/>
		<text x="488" y="298.6" fill="#000000" font-family="Trebuchet MS" font-size="14">EST</text>
	</g>
	<text x="505" y="227" fill="#1b7837" font-family="Verdana" font-size="12">0,N</text>
	<text x="430" y="323" fill="#1b7837" font-family="Verdana" font-size="12">1,1</text>
</g>

<!-- Association CONTENIR -->
<g>
	<line x1="353" y1="541" x2="353" y2="410" stroke="#9970ab" stroke-width="1"/>
	<line x1="353" y1="306" x2="353" y2="410" stroke="#9970ab" stroke-width="1"/>
	<g>
		<path d="M385 375 a14 14 90 0 1 14 14 V401 h-92 V389 a14 14 90 0 1 14 -14" fill="#c2a5cf" stroke="#c2a5cf" stroke-width="0"/>
		<path d="M399 401 v30 a14 14 90 0 1 -14 14 H321 a14 14 90 0 1 -14 -14 V401 H92" fill="#e7d4e8" stroke="#e7d4e8" stroke-width="0"/>
		<rect x="307" y="375" width="92" height="70" fill="none" rx="14" stroke="#9970ab" stroke-width="1.5"/>
		<line x1="307" y1="401" x2="399" y2="401" stroke="#9970ab" stroke-width="1"/>
		<text x="320" y="393.6" fill="#000000" font-family="Trebuchet MS" font-size="14">CONTENIR</text>
		<text x="314" y="419.6" fill="#000000" font-family="Trebuchet MS" font-size="14">quantite</text>
		<text x="314" y="437.6" fill="#000000" font-family="Trebuchet MS" font-size="14">prixUnitaire</text>
	</g>
	<text x="358" y="462" fill="#1b7837" font-family="Verdana" font-size="12">0,N</text>
	<text x="358" y="358" fill="#1b7837" font-family="Verdana" font-size="12">0,N</text>
</g>

<!-- Association IMAGER -->
<g>
	<line x1="353" y1="541" x2="201" y2="541" stroke="#9970ab" stroke-width="1"/>
	<line x1="63" y1="541" x2="201" y2="541" stroke="#9970ab" stroke-width="1"/>
	<g>
		<path d="M219 515 a14 14 90 0 1 14 14 V541 h-64 V529 a14 14 90 0 1 14 -14" fill="#c2a5cf" stroke="#c2a5cf" stroke-width="0"/>
		<path d="M233 541 v12 a14 14 90 0 1 -14 14 H183 a14 14 90 0 1 -14 -14 V541 H64" fill="#e7d4e8" stroke="#e7d4e8" stroke-width="0"/>
		<rect x="169" y="515" width="64" height="52" fill="none" rx="14" stroke="#9970ab" stroke-width="1.5"/>
		<line x1="169" y1="541" x2="233" y2="541" stroke="#9970ab" stroke-width="1"/>
		<text x="177" y="533.6" fill="#000000" font-family="Trebuchet MS" font-size="14">IMAGER</text>
	</g>
	<text x="284" y="558" fill="#1b7837" font-family="Verdana" font-size="12">1,N</text>
	<text x="97" y="558" fill="#1b7837" font-family="Verdana" font-size="12">1,1</text>
</g>

<!-- Association ENTREPOSER -->
<g>
	<line x1="353" y1="541" x2="500" y2="541" stroke="#9970ab" stroke-width="1"/>
	<line x1="500" y1="410" x2="500" y2="541" stroke="#9970ab" stroke-width="1"/>
	<g>
		<path d="M535 506 a14 14 90 0 1 14 14 V532 h-98 V520 a14 14 90 0 1 14 -14" fill="#c2a5cf" stroke="#c2a5cf" stroke-width="0"/>
		<path d="M549 532 v30 a14 14 90 0 1 -14 14 H465 a14 14 90 0 1 -14 -14 V532 H98" fill="#e7d4e8" stroke="#e7d4e8" stroke-width="0"/>
		<rect x="451" y="506" width="98" height="70" fill="none" rx="14" stroke="#9970ab" stroke-width="1.5"/>
		<line x1="451" y1="532" x2="549" y2="532" stroke="#9970ab" stroke-width="1"/>
		<text x="459" y="524.6" fill="#000000" font-family="Trebuchet MS" font-size="14">ENTREPOSER</text>
		<text x="458" y="550.6" fill="#000000" font-family="Trebuchet MS" font-size="14">quantite</text>
		<text x="458" y="568.6" fill="#000000" font-family="Trebuchet MS" font-size="14">catigorie</text>
	</g>
	<text x="400" y="558" fill="#1b7837" font-family="Verdana" font-size="12">0,N</text>
	<text x="505" y="480" fill="#1b7837" font-family="Verdana" font-size="12">0,N</text>
</g>

<!-- Association CATEGORISER -->
<g>
	<line x1="201" y1="663" x2="353" y2="663" stroke="#9970ab" stroke-width="1"/>
	<line x1="353" y1="541" x2="353" y2="663" stroke="#9970ab" stroke-width="1"/>
	<g>
		<path d="M391 637 a14 14 90 0 1 14 14 V663 h-104 V651 a14 14 90 0 1 14 -14" fill="#c2a5cf" stroke="#c2a5cf" stroke-width="0"/>
		<path d="M405 663 v12 a14 14 90 0 1 -14 14 H315 a14 14 90 0 1 -14 -14 V663 H104" fill="#e7d4e8" stroke="#e7d4e8" stroke-width="0"/>
		<rect x="301" y="637" width="104" height="52" fill="none" rx="14" stroke="#9970ab" stroke-width="1.5"/>
		<line x1="301" y1="663" x2="405" y2="663" stroke="#9970ab" stroke-width="1"/>
		<text x="309" y="655.6" fill="#000000" font-family="Trebuchet MS" font-size="14">CATEGORISER</text>
	</g>
	<text x="251" y="680" fill="#1b7837" font-family="Verdana" font-size="12">0,N</text>
	<text x="358" y="629" fill="#1b7837" font-family="Verdana" font-size="12">1,N</text>
</g>

<!-- Entity ENFANT -->
<g>
	<g>
		<rect x="11" y="9" width="104" height="26" fill="#a6dba0" stroke="none" stroke-width="0" opacity="1"/>
		<rect x="11" y="35" width="104" height="62" fill="#d9f0d3" stroke="none" stroke-width="0" opacity="1"/>
		<rect x="11" y="9" width="104" height="88" fill="none" stroke="#5aae61" stroke-width="1.5" opacity="1"/>
		<line x1="11" y1="35" x2="115" y2="35" stroke="#5aae61" stroke-width="1"/>
	</g>
	<text x="38" y="27.6" fill="#000000" font-family="Trebuchet MS" font-size="14">ENFANT</text>
	<text x="16" y="53.6" fill="#000000" font-family="Trebuchet MS" font-size="14">nom</text>
	<line x1="16" y1="56" x2="44" y2="56" stroke="#000000" stroke-width="1"/>
	<text x="16" y="71.6" fill="#000000" font-family="Trebuchet MS" font-size="14">prenom</text>
	<text x="16" y="89.6" fill="#000000" font-family="Trebuchet MS" font-size="14">dateNaissance</text>
</g>

<!-- Entity SPORTS -->
<g>
	<g>
		<rect x="323" y="9" width="60" height="26" fill="#a6dba0" stroke="none" stroke-width="0" opacity="1"/>
		<rect x="323" y="35" width="60" height="62" fill="#d9f0d3" stroke="none" stroke-width="0" opacity="1"/>
		<rect x="323" y="9" width="60" height="88" fill="none" stroke="#5aae61" stroke-width="1.5" opacity="1"/>
		<line x1="323" y1="35" x2="383" y2="35" stroke="#5aae61" stroke-width="1"/>
	</g>
	<text x="329" y="27.6" fill="#000000" font-family="Trebuchet MS" font-size="14">SPORTS</text>
	<text x="328" y="53.6" fill="#000000" font-family="Trebuchet MS" font-size="14">id</text>
	<line x1="328" y1="56" x2="341" y2="56" stroke="#000000" stroke-width="1"/>
	<text x="328" y="71.6" fill="#000000" font-family="Trebuchet MS" font-size="14">libelle</text>
</g>

<!-- Entity USERS -->
<g>
	<g>
		<rect x="149" y="104" width="104" height="26" fill="#a6dba0" stroke="none" stroke-width="0" opacity="1"/>
		<rect x="149" y="130" width="104" height="116" fill="#d9f0d3" stroke="none" stroke-width="0" opacity="1"/>
		<rect x="149" y="104" width="104" height="142" fill="none" stroke="#5aae61" stroke-width="1.5" opacity="1"/>
		<line x1="149" y1="130" x2="253" y2="130" stroke="#5aae61" stroke-width="1"/>
	</g>
	<text x="181" y="122.6" fill="#000000" font-family="Trebuchet MS" font-size="14">USERS</text>
	<text x="154" y="148.6" fill="#000000" font-family="Trebuchet MS" font-size="14">code</text>
	<line x1="154" y1="151" x2="186" y2="151" stroke="#000000" stroke-width="1"/>
	<text x="154" y="166.6" fill="#000000" font-family="Trebuchet MS" font-size="14">nom</text>
	<text x="154" y="184.6" fill="#000000" font-family="Trebuchet MS" font-size="14">prenom</text>
	<text x="154" y="202.6" fill="#000000" font-family="Trebuchet MS" font-size="14">adresse</text>
	<text x="154" y="220.6" fill="#000000" font-family="Trebuchet MS" font-size="14">telephone</text>
	<text x="154" y="238.6" fill="#000000" font-family="Trebuchet MS" font-size="14">dateNaissance</text>
</g>

<!-- Entity STATUT_COMMANDE -->
<g>
	<g>
		<rect x="429" y="140" width="142" height="26" fill="#a6dba0" stroke="none" stroke-width="0" opacity="1"/>
		<rect x="429" y="166" width="142" height="44" fill="#d9f0d3" stroke="none" stroke-width="0" opacity="1"/>
		<rect x="429" y="140" width="142" height="70" fill="none" stroke="#5aae61" stroke-width="1.5" opacity="1"/>
		<line x1="429" y1="166" x2="571" y2="166" stroke="#5aae61" stroke-width="1"/>
	</g>
	<text x="435" y="158.6" fill="#000000" font-family="Trebuchet MS" font-size="14">STATUT_COMMANDE</text>
	<text x="434" y="184.6" fill="#000000" font-family="Trebuchet MS" font-size="14">id</text>
	<line x1="434" y1="187" x2="447" y2="187" stroke="#000000" stroke-width="1"/>
	<text x="434" y="202.6" fill="#000000" font-family="Trebuchet MS" font-size="14">libelle</text>
</g>

<!-- Entity I_AM_FIORA_SUPP -->
<g>
	<g>
		<rect x="635" y="140" width="118" height="26" fill="#a6dba0" stroke="none" stroke-width="0" opacity="1"/>
		<rect x="635" y="166" width="118" height="44" fill="#d9f0d3" stroke="none" stroke-width="0" opacity="1"/>
		<rect x="635" y="140" width="118" height="70" fill="none" stroke="#5aae61" stroke-width="1.5" opacity="1"/>
		<line x1="635" y1="166" x2="753" y2="166" stroke="#5aae61" stroke-width="1"/>
	</g>
	<text x="641" y="158.6" fill="#000000" font-family="Trebuchet MS" font-size="14">I AM FIORA SUPP</text>
	<text x="640" y="184.6" fill="#000000" font-family="Trebuchet MS" font-size="14">Challenger</text>
	<line x1="640" y1="187" x2="710" y2="187" stroke="#000000" stroke-width="1"/>
	<text x="640" y="202.6" fill="#000000" font-family="Trebuchet MS" font-size="14">1200LP</text>
</g>

<!-- Entity CREDENTIALS -->
<g>
	<g>
		<rect x="15" y="253" width="96" height="26" fill="#a6dba0" stroke="none" stroke-width="0" opacity="1"/>
		<rect x="15" y="279" width="96" height="80" fill="#d9f0d3" stroke="none" stroke-width="0" opacity="1"/>
		<rect x="15" y="253" width="96" height="106" fill="none" stroke="#5aae61" stroke-width="1.5" opacity="1"/>
		<line x1="15" y1="279" x2="111" y2="279" stroke="#5aae61" stroke-width="1"/>
	</g>
	<text x="20" y="271.6" fill="#000000" font-family="Trebuchet MS" font-size="14">CREDENTIALS</text>
	<text x="20" y="297.6" fill="#000000" font-family="Trebuchet MS" font-size="14">id</text>
	<line x1="20" y1="300" x2="33" y2="300" stroke="#000000" stroke-width="1"/>
	<text x="20" y="315.6" fill="#000000" font-family="Trebuchet MS" font-size="14">mail</text>
	<text x="20" y="333.6" fill="#000000" font-family="Trebuchet MS" font-size="14">pwd</text>
	<text x="20" y="351.6" fill="#000000" font-family="Trebuchet MS" font-size="14">roles</text>
</g>

<!-- Entity COMMANDE_CLIENTS -->
<g>
	<g>
		<rect x="281" y="271" width="144" height="26" fill="#a6dba0" stroke="none" stroke-width="0" opacity="1"/>
		<rect x="281" y="297" width="144" height="44" fill="#d9f0d3" stroke="none" stroke-width="0" opacity="1"/>
		<rect x="281" y="271" width="144" height="70" fill="none" stroke="#5aae61" stroke-width="1.5" opacity="1"/>
		<line x1="281" y1="297" x2="425" y2="297" stroke="#5aae61" stroke-width="1"/>
	</g>
	<text x="287" y="289.6" fill="#000000" font-family="Trebuchet MS" font-size="14">COMMANDE_CLIENTS</text>
	<text x="286" y="315.6" fill="#000000" font-family="Trebuchet MS" font-size="14">id</text>
	<line x1="286" y1="318" x2="299" y2="318" stroke="#000000" stroke-width="1"/>
	<text x="286" y="333.6" fill="#000000" font-family="Trebuchet MS" font-size="14">dateCommande</text>
</g>

<!-- Entity ENTREPOTS -->
<g>
	<g>
		<rect x="457" y="357" width="86" height="26" fill="#a6dba0" stroke="none" stroke-width="0" opacity="1"/>
		<rect x="457" y="383" width="86" height="80" fill="#d9f0d3" stroke="none" stroke-width="0" opacity="1"/>
		<rect x="457" y="357" width="86" height="106" fill="none" stroke="#5aae61" stroke-width="1.5" opacity="1"/>
		<line x1="457" y1="383" x2="543" y2="383" stroke="#5aae61" stroke-width="1"/>
	</g>
	<text x="463" y="375.6" fill="#000000" font-family="Trebuchet MS" font-size="14">ENTREPOTS</text>
	<text x="462" y="401.6" fill="#000000" font-family="Trebuchet MS" font-size="14">id</text>
	<line x1="462" y1="404" x2="475" y2="404" stroke="#000000" stroke-width="1"/>
	<text x="462" y="419.6" fill="#000000" font-family="Trebuchet MS" font-size="14">nom</text>
	<text x="462" y="437.6" fill="#000000" font-family="Trebuchet MS" font-size="14">adresse</text>
	<text x="462" y="455.6" fill="#000000" font-family="Trebuchet MS" font-size="14">Web</text>
</g>

<!-- Entity IMAGES -->
<g>
	<g>
		<rect x="34" y="506" width="58" height="26" fill="#a6dba0" stroke="none" stroke-width="0" opacity="1"/>
		<rect x="34" y="532" width="58" height="44" fill="#d9f0d3" stroke="none" stroke-width="0" opacity="1"/>
		<rect x="34" y="506" width="58" height="70" fill="none" stroke="#5aae61" stroke-width="1.5" opacity="1"/>
		<line x1="34" y1="532" x2="92" y2="532" stroke="#5aae61" stroke-width="1"/>
	</g>
	<text x="39" y="524.6" fill="#000000" font-family="Trebuchet MS" font-size="14">IMAGES</text>
	<text x="39" y="550.6" fill="#000000" font-family="Trebuchet MS" font-size="14">id</text>
	<line x1="39" y1="553" x2="52" y2="553" stroke="#000000" stroke-width="1"/>
	<text x="39" y="568.6" fill="#000000" font-family="Trebuchet MS" font-size="14">url</text>
</g>

<!-- Entity PRODUITS -->
<g>
	<g>
		<rect x="311" y="470" width="84" height="26" fill="#a6dba0" stroke="none" stroke-width="0" opacity="1"/>
		<rect x="311" y="496" width="84" height="116" fill="#d9f0d3" stroke="none" stroke-width="0" opacity="1"/>
		<rect x="311" y="470" width="84" height="142" fill="none" stroke="#5aae61" stroke-width="1.5" opacity="1"/>
		<line x1="311" y1="496" x2="395" y2="496" stroke="#5aae61" stroke-width="1"/>
	</g>
	<text x="321" y="488.6" fill="#000000" font-family="Trebuchet MS" font-size="14">PRODUITS</text>
	<text x="316" y="514.6" fill="#000000" font-family="Trebuchet MS" font-size="14">id</text>
	<line x1="316" y1="517" x2="329" y2="517" stroke="#000000" stroke-width="1"/>
	<text x="316" y="532.6" fill="#000000" font-family="Trebuchet MS" font-size="14">libelle</text>
	<text x="316" y="550.6" fill="#000000" font-family="Trebuchet MS" font-size="14">prix</text>
	<text x="316" y="568.6" fill="#000000" font-family="Trebuchet MS" font-size="14">reference</text>
	<text x="316" y="586.6" fill="#000000" font-family="Trebuchet MS" font-size="14">fournisseur</text>
	<text x="316" y="604.6" fill="#000000" font-family="Trebuchet MS" font-size="14">description</text>
</g>

<!-- Entity CATEGORIES -->
<g>
	<g>
		<rect x="156" y="628" width="90" height="26" fill="#a6dba0" stroke="none" stroke-width="0" opacity="1"/>
		<rect x="156" y="654" width="90" height="44" fill="#d9f0d3" stroke="none" stroke-width="0" opacity="1"/>
		<rect x="156" y="628" width="90" height="70" fill="none" stroke="#5aae61" stroke-width="1.5" opacity="1"/>
		<line x1="156" y1="654" x2="246" y2="654" stroke="#5aae61" stroke-width="1"/>
	</g>
	<text x="161" y="646.6" fill="#000000" font-family="Trebuchet MS" font-size="14">CATEGORIES</text>
	<text x="161" y="672.6" fill="#000000" font-family="Trebuchet MS" font-size="14">id</text>
	<line x1="161" y1="675" x2="174" y2="675" stroke="#000000" stroke-width="1"/>
	<text x="161" y="690.6" fill="#000000" font-family="Trebuchet MS" font-size="14">libelle</text>
</g>
</svg>